<?xml version="1.0" encoding="utf-8"?>
<!-- Generator: Adobe Illustrator 26.5.0, SVG Export Plug-In . SVG Version: 6.00 Build 0)  -->
<svg version="1.1" id="圖層_1" xmlns="http://www.w3.org/2000/svg" xmlns:xlink="http://www.w3.org/1999/xlink" x="0px" y="0px"
	 viewBox="0 0 30 30" style="enable-background:new 0 0 30 30;" xml:space="preserve">
<style type="text/css">
	.st0{fill:none;stroke:#FFFFFF;stroke-width:2.1922;stroke-linecap:round;}
	.st1{fill:#FFFFFF;}
	.st2{fill:#FFFFFF;filter:url(#Adobe_OpacityMaskFilter);}
	
		.st3{mask:url(#path-3-outside-1_1654_12370_00000168086983994794840400000015726317481341598127_);fill:none;stroke:#FFFFFF;stroke-width:1.0961;stroke-linecap:round;}
	.st4{fill:#FFFFFF;filter:url(#Adobe_OpacityMaskFilter_00000165227347774041955890000001689960859270939288_);}
	
		.st5{mask:url(#path-4-outside-2_1654_12370_00000151519401505498325550000000107356828219815817_);fill:none;stroke:#FFFFFF;stroke-width:1.0961;stroke-linecap:round;}
</style>
<g id="Background_xA0_Image_1_">
</g>
<g>
	<circle class="st0" cx="15" cy="15" r="11"/>
	<path class="st0" d="M11,19.7c0.5-0.1,1.1-0.2,1.8-0.2c0.7-0.1,1.5-0.1,2.3-0.1s1.6,0,2.3,0.1c0.7,0,1.3,0.1,1.8,0.2"/>
	<path class="st1" d="M12.3,12.8c0.3,0,0.4,0,0.5,0.1c0.1,0.1,0,0.2-0.1,0.4c0,0.1-0.1,0.2-0.2,0.2c-0.2,0.2-0.5,0.3-0.8,0.3
		s-0.6-0.1-0.8-0.3c-0.1-0.1-0.1-0.2-0.2-0.2c-0.1-0.2-0.1-0.3-0.1-0.4c0.1-0.1,0.2-0.1,0.5-0.1h0.5H12.3z"/>
	<defs>
		<filter id="Adobe_OpacityMaskFilter" filterUnits="userSpaceOnUse" x="10.1" y="12.3" width="3.2" height="2.2">
			<feColorMatrix  type="matrix" values="1 0 0 0 0  0 1 0 0 0  0 0 1 0 0  0 0 0 1 0"/>
		</filter>
	</defs>
	
		<mask maskUnits="userSpaceOnUse" x="10.1" y="12.3" width="3.2" height="2.2" id="path-3-outside-1_1654_12370_00000168086983994794840400000015726317481341598127_">
		<rect x="9.5" y="11.7" class="st2" width="4.4" height="3.3"/>
		<path d="M12.3,12.8c0.3,0,0.4,0,0.5,0.1c0.1,0.1,0,0.2-0.1,0.4c0,0.1-0.1,0.2-0.2,0.2c-0.2,0.2-0.5,0.3-0.8,0.3s-0.6-0.1-0.8-0.3
			c-0.1-0.1-0.1-0.2-0.2-0.2c-0.1-0.2-0.1-0.3-0.1-0.4c0.1-0.1,0.2-0.1,0.5-0.1h0.5H12.3z"/>
	</mask>
	<path class="st3" d="M12.3,12.8c0.3,0,0.4,0,0.5,0.1c0.1,0.1,0,0.2-0.1,0.4c0,0.1-0.1,0.2-0.2,0.2c-0.2,0.2-0.5,0.3-0.8,0.3
		s-0.6-0.1-0.8-0.3c-0.1-0.1-0.1-0.2-0.2-0.2c-0.1-0.2-0.1-0.3-0.1-0.4c0.1-0.1,0.2-0.1,0.5-0.1h0.5H12.3z"/>
	<path class="st1" d="M18.8,12.8c0.3,0,0.4,0,0.5,0.1c0.1,0.1,0,0.2-0.1,0.4c0,0.1-0.1,0.2-0.2,0.2c-0.2,0.2-0.5,0.3-0.8,0.3
		c-0.3,0-0.6-0.1-0.8-0.3c-0.1-0.1-0.1-0.2-0.2-0.2c-0.1-0.2-0.1-0.3-0.1-0.4c0.1-0.1,0.2-0.1,0.5-0.1h0.5H18.8z"/>
	<defs>
		
			<filter id="Adobe_OpacityMaskFilter_00000036230626351623585310000002771097416851438485_" filterUnits="userSpaceOnUse" x="16.7" y="12.3" width="3.2" height="2.2">
			<feColorMatrix  type="matrix" values="1 0 0 0 0  0 1 0 0 0  0 0 1 0 0  0 0 0 1 0"/>
		</filter>
	</defs>
	
		<mask maskUnits="userSpaceOnUse" x="16.7" y="12.3" width="3.2" height="2.2" id="path-4-outside-2_1654_12370_00000151519401505498325550000000107356828219815817_">
		
			<rect x="16.1" y="11.7" style="fill:#FFFFFF;filter:url(#Adobe_OpacityMaskFilter_00000036230626351623585310000002771097416851438485_);" width="4.4" height="3.3"/>
		<path d="M18.8,12.8c0.3,0,0.4,0,0.5,0.1c0.1,0.1,0,0.2-0.1,0.4c0,0.1-0.1,0.2-0.2,0.2c-0.2,0.2-0.5,0.3-0.8,0.3
			c-0.3,0-0.6-0.1-0.8-0.3c-0.1-0.1-0.1-0.2-0.2-0.2c-0.1-0.2-0.1-0.3-0.1-0.4c0.1-0.1,0.2-0.1,0.5-0.1h0.5H18.8z"/>
	</mask>
	<path class="st5" d="M18.8,12.8c0.3,0,0.4,0,0.5,0.1c0.1,0.1,0,0.2-0.1,0.4c0,0.1-0.1,0.2-0.2,0.2c-0.2,0.2-0.5,0.3-0.8,0.3
		c-0.3,0-0.6-0.1-0.8-0.3c-0.1-0.1-0.1-0.2-0.2-0.2c-0.1-0.2-0.1-0.3-0.1-0.4c0.1-0.1,0.2-0.1,0.5-0.1h0.5H18.8z"/>
</g>
</svg>
