<?xml version="1.0" encoding="utf-8"?>
<!-- Generator: Adobe Illustrator 26.5.0, SVG Export Plug-In . SVG Version: 6.00 Build 0)  -->
<svg version="1.1" id="圖層_1" xmlns="http://www.w3.org/2000/svg" xmlns:xlink="http://www.w3.org/1999/xlink" x="0px" y="0px"
	 viewBox="0 0 30 30" style="enable-background:new 0 0 30 30;" xml:space="preserve">
<style type="text/css">
	.st0{fill:none;stroke:#FFFFFF;stroke-width:2.4063;}
	.st1{fill:#33363F;stroke:#FFFFFF;stroke-width:2.4063;}
</style>
<g id="Background_xA0_Image_1_">
</g>
<g>
	<path class="st0" d="M4.3,10.6c0-1.1,0-1.7,0.4-2.1C5,8.2,5.6,8.2,6.7,8.2h13.2c0.6,0,0.9,0,1.2,0.1c0.3,0.1,0.4,0.4,0.8,0.9
		l3.2,4.8c0.4,0.6,0.6,1,0.6,1.3c0,0.4-0.2,0.7-0.6,1.3l-3.2,4.8c-0.3,0.5-0.5,0.8-0.8,0.9c-0.3,0.1-0.6,0.1-1.2,0.1H6.7
		c-1.1,0-1.7,0-2.1-0.4c-0.4-0.4-0.4-0.9-0.4-2.1V10.6z"/>
	<circle class="st1" cx="18.7" cy="15.5" r="1.2"/>
</g>
</svg>
